# xmcd
#
# Track frame offsets:
# 150
# 17126
# 33903
# 52099
# 69158
# 83833
# 99660
# 111937
# 130922
# 148034
# 166387
# 183575
# 201173
# 218133
# 237562
#
# Disc length: 3392 seconds
#
# Revision: 1
# Processed by: cddbd v1.5.1PL0 Copyright (c) Steve Scherf et al.
# Submitted via: CedeCatalogueitor 2.6.0.5 http://personales.ya.com/cdcatalogueitor
#
DISCID=da0d3e0f
DTITLE=Varios - El Boom De La Rumba 4 Disco 1
DYEAR=2004
DGENRE=
TTITLE0=Bernardo - El Tiki Tiki
TTITLE1=Canelita - Como Te Camelo
TTITLE2=Sombra Y Luz - Bajo La Luz De La Luna
TTITLE3=Los Chunguitos - Yo Me Tengo Que Beber
TTITLE4=La Húngara - Es Un Bandolero
TTITLE5=Alazán - Amor De Rumba
TTITLE6=Tijeritas - Café Café
TTITLE7=Camela - Lágrimas De Amor
TTITLE8=Jacobo - Dime Cuantas Veces
TTITLE9=La Tobala - Pañuelo De Seda
TTITLE10=Currichi - Ábreme La Puerta
TTITLE11=La Nitra - Por Qué Me Engañas
TTITLE12=David - Piénsatelo
TTITLE13=Saray Vargas and Tijeritas - Quién Te Volverá A Besar
TTITLE14=Calaítos - La Quiero A Morir
EXTD=
EXTT0=
EXTT1=
EXTT2=
EXTT3=
EXTT4=
EXTT5=
EXTT6=
EXTT7=
EXTT8=
EXTT9=
EXTT10=
EXTT11=
EXTT12=
EXTT13=
EXTT14=
PLAYORDER=
